<svg xmlns="http://www.w3.org/2000/svg" width="1200" height="722.276" viewBox="0 0 1200 722.276">
  <g id="Illustration_Gifts" data-name="Illustration/Gifts" transform="translate(-979.084 -420.768)">
    <g id="Illustration_Gift_8" data-name="Illustration/Gift 8" transform="translate(1840.921 420.768)">
      <path id="Path_131" data-name="Path 131" d="M107.071,57.935,85.909,33.275,60.118,18.842l-24.3-2.908-9.3,7.621,5.154,12.43L53.316,53.3,81.907,64h25.164Z" transform="translate(-2.489 -9.167)" fill="#fff"/>
      <path id="Path_130" data-name="Path 130" d="M90.446,59.831l17.3-25.513,27.452-17.693h31.193l3.095,12.529-14.649,15L136.208,58.044,107.742,63.45,90.446,60.9Z" transform="translate(21.349 -8.91)" fill="#fff"/>
      <path id="Path_112" data-name="Path 112" d="M218.991,79.608H171.929c20.784-15.817,38.382-40.623,31.6-57.838-1.937-4.915-6.58-10.77-17.7-10.77-10.817,0-24.882,5.592-38.587,15.334-16.132,11.472-26.011,31.477-30.915,43.908-4.9-12.438-14.783-32.436-30.915-43.908C71.713,16.592,57.648,11,46.831,11c-11.12,0-15.763,5.862-17.7,10.77C25.846,30.108,28.142,41.2,35.6,53.015,41.567,62.469,50.419,71.8,60.723,79.6H13.666C11.091,79.6,9,82.411,9,85.871V268.03c0,3.467,2.091,6.269,4.666,6.269H218.991c2.581,0,4.666-2.8,4.666-6.269V85.877C223.657,82.417,221.571,79.608,218.991,79.608Zm-4.666,87.76H120.995V92.14h93.329ZM151.612,37.411c12.217-8.683,25.008-13.873,34.219-13.873,4.909,0,8.442,1.536,9.45,4.1,2.669,6.777-7.91,26.907-30.57,43.018-8.348,5.937-18.363,8.952-29.749,8.952a64.721,64.721,0,0,1-11.321-1.016C127.6,68.029,136.646,48.063,151.612,37.411ZM67.947,70.656C57.447,63.19,48.483,54.043,42.72,44.909c-4.545-7.2-6.636-13.974-5.338-17.271,1.008-2.564,4.54-4.1,9.45-4.1,9.212,0,22,5.191,34.219,13.873C96.02,48.063,105.068,68.036,109.021,78.6A65.05,65.05,0,0,1,97.7,79.608C86.3,79.608,76.295,76.593,67.947,70.656Zm43.715,21.49v75.228H18.333V92.146Zm-93.329,87.76h93.329v81.855H18.333Zm102.662,81.855V179.907h93.329v81.855Z" transform="translate(-9 -11)" fill="#9597a6"/>
    </g>
    <g id="Illustration_Gift_6" data-name="Illustration/Gift 6" transform="translate(1663.788 560.961)">
      <path id="Path_133" data-name="Path 133" d="M1504.261,832.047H1718.23V692.408h14.176V623h-85.6l26.6-17.857-3.333-36.749-23.263-9.2-30.022,40.739L1585.5,562.707h-21.541l-12.611,25.484,8.721,16.948V623l-60.777,5.228v51.748l10.258,3.324Z" transform="translate(-1486.547 -543.118)" fill="#fff"/>
      <path id="Path_107" data-name="Path 107" d="M287.536,104.98c0-17.088-11.584-31.069-25.742-31.069H233.478c1.287-4.66,2.574-9.321,2.574-15.534,0-26.408-16.732-46.6-38.613-46.6-14.158,0-28.316,17.088-38.613,37.282-10.3-20.195-24.455-37.282-38.613-37.282-21.881,0-38.613,20.195-38.613,46.6,0,6.214,1.287,10.874,2.574,15.534H55.857c-14.158,0-25.742,13.981-25.742,31.069v62.137H42.986V291.391c0,17.088,11.584,31.069,25.742,31.069H248.923c14.158,0,25.742-13.981,25.742-31.069V167.117h12.871Zm-25.742,31.069H171.7V104.98h90.1ZM197.439,42.843c7.723,0,12.871,6.214,12.871,15.534s-5.148,15.534-12.871,15.534H176.845C181.993,59.93,192.29,44.4,197.439,42.843Zm-90.1,15.534c0-9.321,5.148-15.534,11.584-15.534,5.148,1.553,15.445,18.641,21.881,31.069H120.212C112.49,73.911,107.341,67.7,107.341,58.377Zm-51.484,46.6h90.1v31.069h-90.1Zm12.871,62.137h77.226V291.391H68.728ZM248.923,291.391H171.7V167.117h77.226Z" transform="translate(-30.115 -11.774)"/>
    </g>
    <g id="Illustration_Gift_7" data-name="Illustration/Gift 7" transform="translate(1928.885 627.958)">
      <path id="Path_134" data-name="Path 134" d="M1703.917,847.042h174.614v-150.2h12.85V655.722H1823.81l9.314-9.8,2.575-14.886-6.479-15.309-10.569-5.037-13.088,2.3h-8.3l-9.543-2.3-11.409,5.037-12.47-5.037L1752,615.723l-7.452,10.875v13.623l11.924,12.769h-67.682l1.9,43.855H1701Z" transform="translate(-1687.19 -607.674)" fill="#fff"/>
      <path id="Path_111" data-name="Path 111" d="M155.908,53.353a24.949,24.949,0,0,0,8.822-19.139c0-13.627-10.671-24.71-23.79-24.71a22.892,22.892,0,0,0-12.411,3.644,22.856,22.856,0,0,0-25.2.291A22.888,22.888,0,0,0,90.445,9.5c-13.119,0-23.79,11.084-23.79,24.71a24.96,24.96,0,0,0,8.819,19.139H13.2v47.474h13.1V248.871H206V100.827h13.1V53.353ZM140.94,15.312c10.033,0,18.194,8.477,18.194,18.9a18.961,18.961,0,0,1-9.82,16.783,17.64,17.64,0,0,1-8.374,2.119v.241h-9.759A25.282,25.282,0,0,0,133.3,17.117,17.463,17.463,0,0,1,140.94,15.312Zm-24.783,0c10.033,0,18.194,8.477,18.194,18.9s-8.161,18.9-18.194,18.9-18.191-8.477-18.191-18.9S106.126,15.312,116.157,15.312ZM72.25,34.21c0-10.421,8.161-18.9,18.194-18.9a17.488,17.488,0,0,1,8.31,2.107,25.272,25.272,0,0,0,2.378,35.931H90.442v-.241a17.437,17.437,0,0,1-8.379-2.119A18.954,18.954,0,0,1,72.25,34.21Zm20.34,208.848H31.9V100.827h60.69Zm40.306,0H98.186V100.827H132.9Zm67.506,0h-61.91V100.827H200.4ZM213.5,95.014H18.8V59.165H213.5Z" transform="translate(-13.205 -9.503)" fill="#9597a6"/>
    </g>
    <g id="Illustration_Gift_5" data-name="Illustration/Gift 5" transform="translate(1513.621 711.548)">
      <g id="Rectangle_11" data-name="Rectangle 11" transform="translate(5.827 57.516)" fill="#fff" stroke="#707070" stroke-width="1">
        <rect width="206.468" height="134.604" stroke="none"/>
        <rect x="0.5" y="0.5" width="205.468" height="133.604" fill="none"/>
      </g>
      <path id="Path_131-2" data-name="Path 131" d="M107.071,57.935,85.909,33.275,60.118,18.842l-24.3-2.908-9.3,7.621,5.154,12.43L53.316,53.3,81.907,64h25.164Z" transform="translate(-2.489 -9.167)" fill="#fff"/>
      <path id="Path_130-2" data-name="Path 130" d="M90.446,59.831l17.3-25.513,27.452-17.693h31.193l3.095,12.529-14.649,15L136.208,58.044,107.742,63.45,90.446,60.9Z" transform="translate(21.258 -8.91)" fill="#fff"/>
      <path id="Path_112-2" data-name="Path 112" d="M218.9,62.048H171.86c20.776-11.768,38.365-30.226,31.583-43.034C201.508,15.357,196.867,11,185.756,11c-10.812,0-24.871,4.161-38.571,11.409-16.125,8.536-26,23.42-30.9,32.67-4.9-9.254-14.777-24.134-30.9-32.67C71.686,15.161,57.627,11,46.815,11,35.7,11,31.058,15.361,29.123,19.014c-3.284,6.2-.989,14.46,6.465,23.248C41.553,49.3,50.4,56.241,60.7,62.043H13.664A4.666,4.666,0,0,0,9,66.708V202.244a4.663,4.663,0,0,0,4.664,4.665H218.9a4.66,4.66,0,0,0,4.664-4.665V66.713A4.663,4.663,0,0,0,218.9,62.048Zm-4.664,65.3h-93.29V71.372h93.29ZM151.551,30.651c12.212-6.46,25-10.323,34.2-10.323,4.907,0,8.438,1.143,9.446,3.051,2.668,5.042-7.906,20.02-30.557,32.008-8.345,4.417-18.355,6.661-29.736,6.661a86.343,86.343,0,0,1-11.316-.756C127.548,53.433,136.592,38.576,151.551,30.651ZM67.922,55.387c-10.5-5.555-19.456-12.361-25.216-19.157-4.543-5.355-6.633-10.4-5.336-12.851,1.008-1.908,4.539-3.051,9.446-3.051,9.208,0,21.988,3.862,34.2,10.323,14.964,7.925,24.008,22.786,27.959,30.646a86.788,86.788,0,0,1-11.316.751C86.272,62.048,76.266,59.8,67.922,55.387Zm43.7,15.99v55.974H18.329V71.377Zm-93.29,65.3h93.29v60.9H18.329Zm102.619,60.9v-60.9h93.29v60.9Z" transform="translate(-9 -11)"/>
    </g>
    <g id="Illustration_Gift_2" data-name="Illustration/Gift 2" transform="translate(1315.169 802.724)">
      <path id="Path_113" data-name="Path 113" d="M71.714,53.024A39.472,39.472,0,0,0,34.22,26,26.341,26.341,0,0,0,8.025,50.491,41.349,41.349,0,0,1,34.22,41.076,54.438,54.438,0,0,1,73.214,57.539Z" transform="translate(22.316 -26)"/>
      <path id="Path_114" data-name="Path 114" d="M21.774,52.614H57.4a26.341,26.341,0,0,0,21.589-11.3A26.331,26.331,0,0,0,57.4,30,39.386,39.386,0,0,0,21.774,52.614Z" transform="translate(112.208 0.152)"/>
      <path id="Path_115" data-name="Path 115" d="M8.636,41.315a26.341,26.341,0,0,0,21.589,11.3H65.85A39.386,39.386,0,0,0,30.225,30,26.331,26.331,0,0,0,8.636,41.315Z" transform="translate(26.311 0.152)"/>
      <rect id="Rectangle_5" data-name="Rectangle 5" width="76.428" height="52.473" transform="translate(13.933 114.06)"/>
      <path id="Path_116" data-name="Path 116" d="M137.769,45H34V60.076H229.99V45H137.769Z" transform="translate(192.142 98.223)"/>
      <path id="Path_117" data-name="Path 117" d="M4,65.152H230.142V35H4Z" transform="translate(-4 32.843)"/>
      <path id="Path_118" data-name="Path 118" d="M102.185,51.307A11.321,11.321,0,0,0,90.878,40a52.668,52.668,0,0,0-43.1,22.614h43.1A11.321,11.321,0,0,0,102.185,51.307Z" transform="translate(282.257 65.533)"/>
      <path id="Path_119" data-name="Path 119" d="M91.4,62.614A52.668,52.668,0,0,0,48.307,40a11.307,11.307,0,0,0,0,22.614Z" transform="translate(211.757 65.533)"/>
      <path id="Path_120" data-name="Path 120" d="M60.321,26A39.472,39.472,0,0,0,22.827,53.024l-1.5,4.508A54.462,54.462,0,0,1,60.321,41.076a41.349,41.349,0,0,1,26.195,9.415A26.341,26.341,0,0,0,60.321,26Z" transform="translate(109.285 -26)"/>
      <path id="Path_121" data-name="Path 121" d="M34,41V56.076H44.184a26.115,26.115,0,0,1-2.646-11.307A25.956,25.956,0,0,1,41.923,41Z" transform="translate(192.142 72.071)"/>
      <rect id="Rectangle_6" data-name="Rectangle 6" width="76.428" height="53.613" transform="translate(13.933 211.021)"/>
      <path id="Path_122" data-name="Path 122" d="M46.414,49l87.336,87.336V112.425L70.325,49Z" transform="translate(273.306 124.376)"/>
      <path id="Path_123" data-name="Path 123" d="M40.414,49l90.457,90.457h23.911L64.325,49Z" transform="translate(234.077 124.376)"/>
      <path id="Path_124" data-name="Path 124" d="M34.414,49l90.457,90.457h23.911L58.325,49Z" transform="translate(194.849 124.376)"/>
      <path id="Path_125" data-name="Path 125" d="M94.522,91.108V49H52.414Z" transform="translate(312.534 124.376)"/>
      <path id="Path_126" data-name="Path 126" d="M111.533,41H96.457v67.843H6v15.076H96.457v67.843h15.076V123.919H201.99V108.843H111.533Z" transform="translate(9.076 72.071)"/>
      <path id="Path_127" data-name="Path 127" d="M34,75.325l48.349,48.349H106.26L34,51.414Z" transform="translate(192.142 140.159)"/>
      <rect id="Rectangle_7" data-name="Rectangle 7" width="75.287" height="52.473" transform="translate(135.989 114.06)"/>
      <rect id="Rectangle_8" data-name="Rectangle 8" width="75.287" height="53.613" transform="translate(135.989 211.021)"/>
      <path id="Path_128" data-name="Path 128" d="M34,84.446H61.032L34,57.414Z" transform="translate(192.142 179.387)"/>
    </g>
    <g id="Illustration_Gift_4" data-name="Illustration/Gift 4" transform="translate(1932.071 820.578)">
      <path id="Path_129" data-name="Path 129" d="M94.087,17.9c13.589,18.272,23.953,41.22,33.772,56.909-20.632.309-46.3-.569-61.863-13.287-7.8-6.608-10.827-14.852-10.827-24.437.048-5.712,3.06-12.515,8.364-17.363C72.511,13.186,85.253,9.436,94.087,17.9Zm117.4,1.822c5.3,4.848,8.313,11.651,8.361,17.363,0,9.589-3.022,17.83-10.827,24.437-21.84,13.5-37.272,13.287-61.86,13.287,10.934-17.191,21.226-41.2,33.769-56.909,8.965-7.133,21.686-6.069,30.558,1.822ZM137.507,50.807c6.117.861,8.663,4.683,10.292,9.86-2.6,4.357-5.548,9.095-8.79,14.145h-3c-3.245-5.05-6.2-9.788-8.793-14.145C128.35,54.694,132.419,52.235,137.507,50.807ZM14,81.674H261.014v48.013H14Zm17.154,54.875H51.738V157.02H31.154Zm27.446,0H79.184V157.02H58.6Zm27.446,0H106.63V157.02H86.046Zm27.446,0h20.584V157.02H113.492Zm27.446,0h20.584V157.02H140.938Zm27.446,0h20.584V157.02H168.384Zm27.446,0h20.584V157.02H195.83Zm27.446,0H243.86V157.02H223.276ZM31.154,163.878H51.738v20.578H31.154Zm27.446,0H79.184v20.578H58.6Zm27.446,0H106.63v20.578H86.046Zm27.446,0h20.584v20.578H113.492Zm27.446,0h20.584v20.578H140.938Zm27.446,0h20.584v20.578H168.384Zm27.446,0h20.584v20.578H195.83Zm27.446,0H243.86v20.578H223.276ZM31.154,191.317H51.738v20.578H31.154Zm27.446,0H79.184v20.578H58.6Zm27.446,0H106.63v20.578H86.046Zm27.446,0h20.584v20.578H113.492Zm27.446,0h20.584v20.578H140.938Zm27.446,0h20.584v20.578H168.384Zm27.446,0h20.584v20.578H195.83Zm27.446,0H243.86v20.578H223.276ZM31.154,218.753H51.738V239.33H31.154Zm27.446,0H79.184V239.33H58.6Zm27.446,0H106.63V239.33H86.046Zm27.446,0h20.584V239.33H113.492Zm27.446,0h20.584V239.33H140.938Zm27.446,0h20.584V239.33H168.384Zm27.446,0h20.584V239.33H195.83Zm27.446,0H243.86V239.33H223.276ZM31.154,246.192H51.738v20.684H31.154Zm27.446,0H79.184v20.684H58.6Zm27.446,0H106.63v20.684H86.046Zm27.446,0h20.584v20.684H113.492Zm27.446,0h20.584v20.684H140.938Zm27.446,0h20.584v20.684H168.384Zm27.446,0h20.584v20.684H195.83Zm27.446,0H243.86v20.684H223.276Z" transform="translate(-14 -13)"/>
    </g>
    <g id="Illustration_Gift_3" data-name="Illustration/Gift 3" transform="translate(1667.915 787.215)">
      <g id="Rectangle_9" data-name="Rectangle 9" transform="translate(0 69.112)" fill="#fff" stroke="#707070" stroke-width="1">
        <rect width="336.931" height="252.097" stroke="none"/>
        <rect x="0.5" y="0.5" width="335.931" height="251.097" fill="none"/>
      </g>
      <path id="Path_132" data-name="Path 132" d="M147.078,63.788h85.254l18.5-11.228,2.365-26.21-9.4-15-24.462-4.79H184.748l-25.2,25.381-9.168,16.028L133.015,29.548,118.008,11.355,73.54,6.565l-21.67,4.79-7,18.193V47.974l7,11.67Z" transform="translate(16.276 2.439)" fill="#fff"/>
      <path id="Path_110" data-name="Path 110" d="M343.847,74.374h-75a34.427,34.427,0,0,0,15.372-28.659V41.72A34.476,34.476,0,0,0,249.783,7.282H228.767a61.829,61.829,0,0,0-58.4,41.833A61.829,61.829,0,0,0,111.959,7.282H90.947A34.476,34.476,0,0,0,56.508,41.72v3.995A34.435,34.435,0,0,0,71.885,74.374H5V328.942H343.847ZM329.634,88.59v66.945H223.673V88.59Zm-235.5,0H209.46v66.945H94.132ZM228.767,21.5h21.016A20.243,20.243,0,0,1,270,41.72v3.995A20.246,20.246,0,0,1,249.783,65.94H181.317A47.609,47.609,0,0,1,228.767,21.5ZM70.717,45.719V41.724A20.246,20.246,0,0,1,90.943,21.5h21.012a47.613,47.613,0,0,1,47.454,44.445H90.943A20.257,20.257,0,0,1,70.717,45.719ZM19.213,88.59h60.7v66.945h-60.7Zm0,81.158h60.7V314.729h-60.7ZM329.634,314.729H94.132V169.748H209.46V314.033h14.213V169.748H329.634Z" transform="translate(-4.67 -7.282)"/>
    </g>
    <g id="Illustration_Gift_1" data-name="Illustration/Gift 1" transform="translate(979.084 860.191)">
      <rect id="Rectangle_10" data-name="Rectangle 10" width="242.971" height="184.795" transform="translate(139.39 97.659)" fill="#fff"/>
      <path id="Path_109" data-name="Path 109" d="M372.794,115.9H214.015l17.693-23.136a27.341,27.341,0,0,0-4.99-38.107L204.942,38.321a26.486,26.486,0,0,0-19.961-5.444,26.766,26.766,0,0,0-18.146,10.434L125.1,97.749a36.619,36.619,0,0,0-11.341-14.971,36.205,36.205,0,0,0-50.809,6.8,35.673,35.673,0,0,0-7.258,26.766c0,.907.454,1.361.454,2.268-9.98.907-19.961,5.444-26.312,14.063a35.673,35.673,0,0,0-7.258,26.766A36.729,36.729,0,0,0,36.636,183.49a38.128,38.128,0,0,0,17.239,7.258L12.139,245.187a27.341,27.341,0,0,0,4.99,38.107L38.9,300.079a26.229,26.229,0,0,0,16.332,5.444h3.629a26.766,26.766,0,0,0,18.146-10.434l50.356-65.78v58.975A27.3,27.3,0,0,0,154.586,315.5H372.34a27.3,27.3,0,0,0,27.219-27.219V143.115A26.63,26.63,0,0,0,372.794,115.9ZM77.465,100.018a18.941,18.941,0,0,1,14.517-7.258,19.552,19.552,0,0,1,10.888,3.629,18.141,18.141,0,0,1,3.629,25.4L95.611,136.31,81.094,125.876a17.585,17.585,0,0,1-6.8-11.8A22.265,22.265,0,0,1,77.465,100.018ZM47.978,168.973c-3.629-3.176-6.351-7.258-6.8-12.249s.454-9.527,3.629-13.61a18.941,18.941,0,0,1,14.517-7.258,18.458,18.458,0,0,1,10.888,3.629l14.517,10.888L73.836,164.89C67.031,173.51,55.69,174.871,47.978,168.973ZM62.948,283.294a10.084,10.084,0,0,1-5.9,3.629,9.191,9.191,0,0,1-6.8-1.815L28.471,268.323a9.282,9.282,0,0,1-1.815-12.7l60.79-79.389h0l16.332-21.775,10.888-14.517L180.9,53.291a10.085,10.085,0,0,1,5.9-3.629h1.361a8.718,8.718,0,0,1,5.444,1.815l21.775,16.332a9.282,9.282,0,0,1,1.815,12.7Zm169.213,14.063H155.04a9.1,9.1,0,0,1-9.073-9.073V204.812l54.438-70.77h32.209V297.357Zm45.365,0H250.307V134.042h27.219Zm104.34-9.073a9.1,9.1,0,0,1-9.073,9.073H295.673V134.042h77.121a9.1,9.1,0,0,1,9.073,9.073Z" transform="translate(-6.573 -32.65)"/>
    </g>
  </g>
</svg>
